<svg width="687" height="193" viewBox="0 0 687 193" xmlns="http://www.w3.org/2000/svg" role="img" aria-label="Contribution activity for thoriqafa">
  <defs>
    <linearGradient id="card-687x193" x1="0%" y1="0%" x2="100%" y2="100%">
      <stop offset="0%" class="card-grad-a" />
      <stop offset="100%" class="card-grad-b" />
    </linearGradient>
  </defs>
  <style>
      :root {
        --surface-a: #ffffff;
        --surface-b: #f6f8fa;
        --border: #d0d7de;
        --header: #f6f8fa;
        --text: #1f2328;
        --muted: #59636e;
        --faint: #818b98;
        --level-0: #ebedf0;
        --level-1: #9be9a8;
        --level-2: #40c463;
        --level-3: #30a14e;
        --level-4: #216e39;
        --c-star: #bf8700;
        --c-fork: #0969da;
        --c-follow: #8250df;
        --c-repo: #1b7c83;
        --c-contrib: #1a7f37;
        --c-commit: #bc4c00;
        --c-pr: #bf3989;
        --c-issue: #cf222e;
      }
      @media (prefers-color-scheme: dark) {
        :root {
        --surface-a: #0d1117;
        --surface-b: #161b22;
        --border: #30363d;
        --header: #161b22;
        --text: #e6edf3;
        --muted: #8b949e;
        --faint: #6e7681;
        --level-0: #21262d;
        --level-1: #0e4429;
        --level-2: #006d32;
        --level-3: #26a641;
        --level-4: #39d353;
        --c-star: #d29922;
        --c-fork: #58a6ff;
        --c-follow: #a371f7;
        --c-repo: #39c5cf;
        --c-contrib: #3fb950;
        --c-commit: #f0883e;
        --c-pr: #db61a2;
        --c-issue: #f85149;
        }
      }

      .card-frame { stroke: var(--border); stroke-width: 1; }
      .card-grad-a { stop-color: var(--surface-a); }
      .card-grad-b { stop-color: var(--surface-b); }
      .header-fill { fill: var(--header); }
      .divider { stroke: var(--border); stroke-width: 1; }
      .title { font-family: -apple-system, BlinkMacSystemFont, 'Segoe UI', Helvetica, Arial, sans-serif; font-size: 15px; font-weight: 600; fill: var(--text); }
      .subtitle { font-family: -apple-system, BlinkMacSystemFont, 'Segoe UI', Helvetica, Arial, sans-serif; font-size: 11px; fill: var(--muted); }
      .label { font-family: -apple-system, BlinkMacSystemFont, 'Segoe UI', Helvetica, Arial, sans-serif; font-size: 10px; font-weight: 600; letter-spacing: 0.6px; fill: var(--muted); }
      .value { font-family: -apple-system, BlinkMacSystemFont, 'Segoe UI', Helvetica, Arial, sans-serif; font-size: 19px; font-weight: 700; }
      .metric { font-family: -apple-system, BlinkMacSystemFont, 'Segoe UI', Helvetica, Arial, sans-serif; font-size: 30px; font-weight: 700; }
      .unit { font-family: -apple-system, BlinkMacSystemFont, 'Segoe UI', Helvetica, Arial, sans-serif; font-size: 12px; fill: var(--muted); }
      .axis { font-family: -apple-system, BlinkMacSystemFont, 'Segoe UI', Helvetica, Arial, sans-serif; font-size: 9px; fill: var(--muted); }
      .meta { font-family: -apple-system, BlinkMacSystemFont, 'Segoe UI', Helvetica, Arial, sans-serif; font-size: 9px; fill: var(--faint); }
      .c-star { fill: var(--c-star); }
      .c-fork { fill: var(--c-fork); }
      .c-follow { fill: var(--c-follow); }
      .c-muted { fill: var(--muted); }
      .c-repo { fill: var(--c-repo); }
      .c-contrib { fill: var(--c-contrib); }
      .c-commit { fill: var(--c-commit); }
      .c-pr { fill: var(--c-pr); }
      .c-issue { fill: var(--c-issue); }
      .level-0 { fill: var(--level-0); }
      .level-1 { fill: var(--level-1); }
      .level-2 { fill: var(--level-2); }
      .level-3 { fill: var(--level-3); }
      .level-4 { fill: var(--level-4); }
  </style>
  <rect x="0.5" y="0.5" width="686" height="192" rx="12" fill="url(#card-687x193)" class="card-frame" />
  <rect x="1" y="1" width="685" height="45" rx="11" class="header-fill" />
  <rect x="1" y="23" width="685" height="23" class="header-fill" />
  <line x1="1" y1="46" x2="686" y2="46" class="divider" />
  <text x="24" y="30" class="title">Contribution Activity</text>
  <text x="663" y="29" class="subtitle" text-anchor="end">263 contributions in the last year</text>
  <text x="58" y="60" class="axis" text-anchor="start">Oct</text>
  <text x="106" y="60" class="axis" text-anchor="start">Nov</text>
  <text x="166" y="60" class="axis" text-anchor="start">Dec</text>
  <text x="214" y="60" class="axis" text-anchor="start">Jan</text>
  <text x="274" y="60" class="axis" text-anchor="start">Feb</text>
  <text x="322" y="60" class="axis" text-anchor="start">Mar</text>
  <text x="370" y="60" class="axis" text-anchor="start">Apr</text>
  <text x="418" y="60" class="axis" text-anchor="start">May</text>
  <text x="478" y="60" class="axis" text-anchor="start">Jun</text>
  <text x="526" y="60" class="axis" text-anchor="start">Jul</text>
  <text x="574" y="60" class="axis" text-anchor="start">Aug</text>
  <text x="634" y="60" class="axis" text-anchor="start">Sep</text>
  <text x="28" y="90" class="axis" text-anchor="end">Mon</text>
  <text x="28" y="114" class="axis" text-anchor="end">Wed</text>
  <text x="28" y="138" class="axis" text-anchor="end">Fri</text>
  <rect x="34" y="130" width="9" height="9" rx="2" class="level-0"></rect>
  <rect x="34" y="142" width="9" height="9" rx="2" class="level-0"></rect>
  <rect x="46" y="70" width="9" height="9" rx="2" class="level-0"></rect>
  <rect x="46" y="82" width="9" height="9" rx="2" class="level-0"></rect>
  <rect x="46" y="94" width="9" height="9" rx="2" class="level-3"><title>4 contributions on Sep 23, 2025</title></rect>
  <rect x="46" y="106" width="9" height="9" rx="2" class="level-1"><title>1 contribution on Sep 24, 2025</title></rect>
  <rect x="46" y="118" width="9" height="9" rx="2" class="level-0"></rect>
  <rect x="46" y="130" width="9" height="9" rx="2" class="level-0"></rect>
  <rect x="46" y="142" width="9" height="9" rx="2" class="level-0"></rect>
  <rect x="58" y="70" width="9" height="9" rx="2" class="level-0"></rect>
  <rect x="58" y="82" width="9" height="9" rx="2" class="level-0"></rect>
  <rect x="58" y="94" width="9" height="9" rx="2" class="level-0"></rect>
  <rect x="58" y="106" width="9" height="9" rx="2" class="level-1"><title>1 contribution on Oct 1, 2025</title></rect>
  <rect x="58" y="118" width="9" height="9" rx="2" class="level-2"><title>2 contributions on Oct 2, 2025</title></rect>
  <rect x="58" y="130" width="9" height="9" rx="2" class="level-0"></rect>
  <rect x="58" y="142" width="9" height="9" rx="2" class="level-0"></rect>
  <rect x="70" y="70" width="9" height="9" rx="2" class="level-0"></rect>
  <rect x="70" y="82" width="9" height="9" rx="2" class="level-0"></rect>
  <rect x="70" y="94" width="9" height="9" rx="2" class="level-0"></rect>
  <rect x="70" y="106" width="9" height="9" rx="2" class="level-4"><title>6 contributions on Oct 8, 2025</title></rect>
  <rect x="70" y="118" width="9" height="9" rx="2" class="level-3"><title>3 contributions on Oct 9, 2025</title></rect>
  <rect x="70" y="130" width="9" height="9" rx="2" class="level-0"></rect>
  <rect x="70" y="142" width="9" height="9" rx="2" class="level-0"></rect>
  <rect x="82" y="70" width="9" height="9" rx="2" class="level-0"></rect>
  <rect x="82" y="82" width="9" height="9" rx="2" class="level-1"><title>1 contribution on Oct 13, 2025</title></rect>
  <rect x="82" y="94" width="9" height="9" rx="2" class="level-0"></rect>
  <rect x="82" y="106" width="9" height="9" rx="2" class="level-1"><title>1 contribution on Oct 15, 2025</title></rect>
  <rect x="82" y="118" width="9" height="9" rx="2" class="level-1"><title>1 contribution on Oct 16, 2025</title></rect>
  <rect x="82" y="130" width="9" height="9" rx="2" class="level-0"></rect>
  <rect x="82" y="142" width="9" height="9" rx="2" class="level-0"></rect>
  <rect x="94" y="70" width="9" height="9" rx="2" class="level-0"></rect>
  <rect x="94" y="82" width="9" height="9" rx="2" class="level-0"></rect>
  <rect x="94" y="94" width="9" height="9" rx="2" class="level-1"><title>1 contribution on Oct 21, 2025</title></rect>
  <rect x="94" y="106" width="9" height="9" rx="2" class="level-1"><title>1 contribution on Oct 22, 2025</title></rect>
  <rect x="94" y="118" width="9" height="9" rx="2" class="level-0"></rect>
  <rect x="94" y="130" width="9" height="9" rx="2" class="level-0"></rect>
  <rect x="94" y="142" width="9" height="9" rx="2" class="level-0"></rect>
  <rect x="106" y="70" width="9" height="9" rx="2" class="level-0"></rect>
  <rect x="106" y="82" width="9" height="9" rx="2" class="level-0"></rect>
  <rect x="106" y="94" width="9" height="9" rx="2" class="level-1"><title>1 contribution on Oct 28, 2025</title></rect>
  <rect x="106" y="106" width="9" height="9" rx="2" class="level-1"><title>1 contribution on Oct 29, 2025</title></rect>
  <rect x="106" y="118" width="9" height="9" rx="2" class="level-0"></rect>
  <rect x="106" y="130" width="9" height="9" rx="2" class="level-0"></rect>
  <rect x="106" y="142" width="9" height="9" rx="2" class="level-0"></rect>
  <rect x="118" y="70" width="9" height="9" rx="2" class="level-0"></rect>
  <rect x="118" y="82" width="9" height="9" rx="2" class="level-3"><title>4 contributions on Nov 3, 2025</title></rect>
  <rect x="118" y="94" width="9" height="9" rx="2" class="level-1"><title>1 contribution on Nov 4, 2025</title></rect>
  <rect x="118" y="106" width="9" height="9" rx="2" class="level-1"><title>1 contribution on Nov 5, 2025</title></rect>
  <rect x="118" y="118" width="9" height="9" rx="2" class="level-0"></rect>
  <rect x="118" y="130" width="9" height="9" rx="2" class="level-0"></rect>
  <rect x="118" y="142" width="9" height="9" rx="2" class="level-0"></rect>
  <rect x="130" y="70" width="9" height="9" rx="2" class="level-0"></rect>
  <rect x="130" y="82" width="9" height="9" rx="2" class="level-2"><title>2 contributions on Nov 10, 2025</title></rect>
  <rect x="130" y="94" width="9" height="9" rx="2" class="level-0"></rect>
  <rect x="130" y="106" width="9" height="9" rx="2" class="level-2"><title>2 contributions on Nov 12, 2025</title></rect>
  <rect x="130" y="118" width="9" height="9" rx="2" class="level-0"></rect>
  <rect x="130" y="130" width="9" height="9" rx="2" class="level-1"><title>1 contribution on Nov 14, 2025</title></rect>
  <rect x="130" y="142" width="9" height="9" rx="2" class="level-2"><title>2 contributions on Nov 15, 2025</title></rect>
  <rect x="142" y="70" width="9" height="9" rx="2" class="level-3"><title>3 contributions on Nov 16, 2025</title></rect>
  <rect x="142" y="82" width="9" height="9" rx="2" class="level-1"><title>1 contribution on Nov 17, 2025</title></rect>
  <rect x="142" y="94" width="9" height="9" rx="2" class="level-0"></rect>
  <rect x="142" y="106" width="9" height="9" rx="2" class="level-0"></rect>
  <rect x="142" y="118" width="9" height="9" rx="2" class="level-0"></rect>
  <rect x="142" y="130" width="9" height="9" rx="2" class="level-0"></rect>
  <rect x="142" y="142" width="9" height="9" rx="2" class="level-0"></rect>
  <rect x="154" y="70" width="9" height="9" rx="2" class="level-0"></rect>
  <rect x="154" y="82" width="9" height="9" rx="2" class="level-0"></rect>
  <rect x="154" y="94" width="9" height="9" rx="2" class="level-0"></rect>
  <rect x="154" y="106" width="9" height="9" rx="2" class="level-0"></rect>
  <rect x="154" y="118" width="9" height="9" rx="2" class="level-0"></rect>
  <rect x="154" y="130" width="9" height="9" rx="2" class="level-0"></rect>
  <rect x="154" y="142" width="9" height="9" rx="2" class="level-0"></rect>
  <rect x="166" y="70" width="9" height="9" rx="2" class="level-0"></rect>
  <rect x="166" y="82" width="9" height="9" rx="2" class="level-0"></rect>
  <rect x="166" y="94" width="9" height="9" rx="2" class="level-0"></rect>
  <rect x="166" y="106" width="9" height="9" rx="2" class="level-0"></rect>
  <rect x="166" y="118" width="9" height="9" rx="2" class="level-0"></rect>
  <rect x="166" y="130" width="9" height="9" rx="2" class="level-0"></rect>
  <rect x="166" y="142" width="9" height="9" rx="2" class="level-0"></rect>
  <rect x="178" y="70" width="9" height="9" rx="2" class="level-0"></rect>
  <rect x="178" y="82" width="9" height="9" rx="2" class="level-0"></rect>
  <rect x="178" y="94" width="9" height="9" rx="2" class="level-0"></rect>
  <rect x="178" y="106" width="9" height="9" rx="2" class="level-0"></rect>
  <rect x="178" y="118" width="9" height="9" rx="2" class="level-0"></rect>
  <rect x="178" y="130" width="9" height="9" rx="2" class="level-0"></rect>
  <rect x="178" y="142" width="9" height="9" rx="2" class="level-0"></rect>
  <rect x="190" y="70" width="9" height="9" rx="2" class="level-0"></rect>
  <rect x="190" y="82" width="9" height="9" rx="2" class="level-0"></rect>
  <rect x="190" y="94" width="9" height="9" rx="2" class="level-0"></rect>
  <rect x="190" y="106" width="9" height="9" rx="2" class="level-0"></rect>
  <rect x="190" y="118" width="9" height="9" rx="2" class="level-0"></rect>
  <rect x="190" y="130" width="9" height="9" rx="2" class="level-0"></rect>
  <rect x="190" y="142" width="9" height="9" rx="2" class="level-0"></rect>
  <rect x="202" y="70" width="9" height="9" rx="2" class="level-0"></rect>
  <rect x="202" y="82" width="9" height="9" rx="2" class="level-0"></rect>
  <rect x="202" y="94" width="9" height="9" rx="2" class="level-0"></rect>
  <rect x="202" y="106" width="9" height="9" rx="2" class="level-0"></rect>
  <rect x="202" y="118" width="9" height="9" rx="2" class="level-0"></rect>
  <rect x="202" y="130" width="9" height="9" rx="2" class="level-0"></rect>
  <rect x="202" y="142" width="9" height="9" rx="2" class="level-0"></rect>
  <rect x="214" y="70" width="9" height="9" rx="2" class="level-0"></rect>
  <rect x="214" y="82" width="9" height="9" rx="2" class="level-0"></rect>
  <rect x="214" y="94" width="9" height="9" rx="2" class="level-0"></rect>
  <rect x="214" y="106" width="9" height="9" rx="2" class="level-0"></rect>
  <rect x="214" y="118" width="9" height="9" rx="2" class="level-0"></rect>
  <rect x="214" y="130" width="9" height="9" rx="2" class="level-0"></rect>
  <rect x="214" y="142" width="9" height="9" rx="2" class="level-0"></rect>
  <rect x="226" y="70" width="9" height="9" rx="2" class="level-0"></rect>
  <rect x="226" y="82" width="9" height="9" rx="2" class="level-0"></rect>
  <rect x="226" y="94" width="9" height="9" rx="2" class="level-0"></rect>
  <rect x="226" y="106" width="9" height="9" rx="2" class="level-0"></rect>
  <rect x="226" y="118" width="9" height="9" rx="2" class="level-0"></rect>
  <rect x="226" y="130" width="9" height="9" rx="2" class="level-0"></rect>
  <rect x="226" y="142" width="9" height="9" rx="2" class="level-0"></rect>
  <rect x="238" y="70" width="9" height="9" rx="2" class="level-0"></rect>
  <rect x="238" y="82" width="9" height="9" rx="2" class="level-0"></rect>
  <rect x="238" y="94" width="9" height="9" rx="2" class="level-0"></rect>
  <rect x="238" y="106" width="9" height="9" rx="2" class="level-0"></rect>
  <rect x="238" y="118" width="9" height="9" rx="2" class="level-0"></rect>
  <rect x="238" y="130" width="9" height="9" rx="2" class="level-0"></rect>
  <rect x="238" y="142" width="9" height="9" rx="2" class="level-0"></rect>
  <rect x="250" y="70" width="9" height="9" rx="2" class="level-0"></rect>
  <rect x="250" y="82" width="9" height="9" rx="2" class="level-0"></rect>
  <rect x="250" y="94" width="9" height="9" rx="2" class="level-0"></rect>
  <rect x="250" y="106" width="9" height="9" rx="2" class="level-0"></rect>
  <rect x="250" y="118" width="9" height="9" rx="2" class="level-0"></rect>
  <rect x="250" y="130" width="9" height="9" rx="2" class="level-0"></rect>
  <rect x="250" y="142" width="9" height="9" rx="2" class="level-0"></rect>
  <rect x="262" y="70" width="9" height="9" rx="2" class="level-0"></rect>
  <rect x="262" y="82" width="9" height="9" rx="2" class="level-4"><title>6 contributions on Jan 26, 2026</title></rect>
  <rect x="262" y="94" width="9" height="9" rx="2" class="level-4"><title>7 contributions on Jan 27, 2026</title></rect>
  <rect x="262" y="106" width="9" height="9" rx="2" class="level-2"><title>2 contributions on Jan 28, 2026</title></rect>
  <rect x="262" y="118" width="9" height="9" rx="2" class="level-2"><title>2 contributions on Jan 29, 2026</title></rect>
  <rect x="262" y="130" width="9" height="9" rx="2" class="level-0"></rect>
  <rect x="262" y="142" width="9" height="9" rx="2" class="level-0"></rect>
  <rect x="274" y="70" width="9" height="9" rx="2" class="level-0"></rect>
  <rect x="274" y="82" width="9" height="9" rx="2" class="level-2"><title>2 contributions on Feb 2, 2026</title></rect>
  <rect x="274" y="94" width="9" height="9" rx="2" class="level-4"><title>5 contributions on Feb 3, 2026</title></rect>
  <rect x="274" y="106" width="9" height="9" rx="2" class="level-1"><title>1 contribution on Feb 4, 2026</title></rect>
  <rect x="274" y="118" width="9" height="9" rx="2" class="level-3"><title>3 contributions on Feb 5, 2026</title></rect>
  <rect x="274" y="130" width="9" height="9" rx="2" class="level-3"><title>3 contributions on Feb 6, 2026</title></rect>
  <rect x="274" y="142" width="9" height="9" rx="2" class="level-0"></rect>
  <rect x="286" y="70" width="9" height="9" rx="2" class="level-1"><title>1 contribution on Feb 8, 2026</title></rect>
  <rect x="286" y="82" width="9" height="9" rx="2" class="level-1"><title>1 contribution on Feb 9, 2026</title></rect>
  <rect x="286" y="94" width="9" height="9" rx="2" class="level-0"></rect>
  <rect x="286" y="106" width="9" height="9" rx="2" class="level-0"></rect>
  <rect x="286" y="118" width="9" height="9" rx="2" class="level-2"><title>2 contributions on Feb 12, 2026</title></rect>
  <rect x="286" y="130" width="9" height="9" rx="2" class="level-3"><title>3 contributions on Feb 13, 2026</title></rect>
  <rect x="286" y="142" width="9" height="9" rx="2" class="level-0"></rect>
  <rect x="298" y="70" width="9" height="9" rx="2" class="level-0"></rect>
  <rect x="298" y="82" width="9" height="9" rx="2" class="level-0"></rect>
  <rect x="298" y="94" width="9" height="9" rx="2" class="level-0"></rect>
  <rect x="298" y="106" width="9" height="9" rx="2" class="level-0"></rect>
  <rect x="298" y="118" width="9" height="9" rx="2" class="level-0"></rect>
  <rect x="298" y="130" width="9" height="9" rx="2" class="level-0"></rect>
  <rect x="298" y="142" width="9" height="9" rx="2" class="level-0"></rect>
  <rect x="310" y="70" width="9" height="9" rx="2" class="level-0"></rect>
  <rect x="310" y="82" width="9" height="9" rx="2" class="level-4"><title>8 contributions on Feb 23, 2026</title></rect>
  <rect x="310" y="94" width="9" height="9" rx="2" class="level-2"><title>2 contributions on Feb 24, 2026</title></rect>
  <rect x="310" y="106" width="9" height="9" rx="2" class="level-3"><title>3 contributions on Feb 25, 2026</title></rect>
  <rect x="310" y="118" width="9" height="9" rx="2" class="level-0"></rect>
  <rect x="310" y="130" width="9" height="9" rx="2" class="level-1"><title>1 contribution on Feb 27, 2026</title></rect>
  <rect x="310" y="142" width="9" height="9" rx="2" class="level-0"></rect>
  <rect x="322" y="70" width="9" height="9" rx="2" class="level-0"></rect>
  <rect x="322" y="82" width="9" height="9" rx="2" class="level-1"><title>1 contribution on Mar 2, 2026</title></rect>
  <rect x="322" y="94" width="9" height="9" rx="2" class="level-3"><title>4 contributions on Mar 3, 2026</title></rect>
  <rect x="322" y="106" width="9" height="9" rx="2" class="level-1"><title>1 contribution on Mar 4, 2026</title></rect>
  <rect x="322" y="118" width="9" height="9" rx="2" class="level-4"><title>7 contributions on Mar 5, 2026</title></rect>
  <rect x="322" y="130" width="9" height="9" rx="2" class="level-3"><title>4 contributions on Mar 6, 2026</title></rect>
  <rect x="322" y="142" width="9" height="9" rx="2" class="level-0"></rect>
  <rect x="334" y="70" width="9" height="9" rx="2" class="level-0"></rect>
  <rect x="334" y="82" width="9" height="9" rx="2" class="level-3"><title>4 contributions on Mar 9, 2026</title></rect>
  <rect x="334" y="94" width="9" height="9" rx="2" class="level-0"></rect>
  <rect x="334" y="106" width="9" height="9" rx="2" class="level-0"></rect>
  <rect x="334" y="118" width="9" height="9" rx="2" class="level-0"></rect>
  <rect x="334" y="130" width="9" height="9" rx="2" class="level-0"></rect>
  <rect x="334" y="142" width="9" height="9" rx="2" class="level-0"></rect>
  <rect x="346" y="70" width="9" height="9" rx="2" class="level-0"></rect>
  <rect x="346" y="82" width="9" height="9" rx="2" class="level-0"></rect>
  <rect x="346" y="94" width="9" height="9" rx="2" class="level-0"></rect>
  <rect x="346" y="106" width="9" height="9" rx="2" class="level-0"></rect>
  <rect x="346" y="118" width="9" height="9" rx="2" class="level-0"></rect>
  <rect x="346" y="130" width="9" height="9" rx="2" class="level-0"></rect>
  <rect x="346" y="142" width="9" height="9" rx="2" class="level-0"></rect>
  <rect x="358" y="70" width="9" height="9" rx="2" class="level-0"></rect>
  <rect x="358" y="82" width="9" height="9" rx="2" class="level-0"></rect>
  <rect x="358" y="94" width="9" height="9" rx="2" class="level-0"></rect>
  <rect x="358" y="106" width="9" height="9" rx="2" class="level-0"></rect>
  <rect x="358" y="118" width="9" height="9" rx="2" class="level-0"></rect>
  <rect x="358" y="130" width="9" height="9" rx="2" class="level-0"></rect>
  <rect x="358" y="142" width="9" height="9" rx="2" class="level-0"></rect>
  <rect x="370" y="70" width="9" height="9" rx="2" class="level-0"></rect>
  <rect x="370" y="82" width="9" height="9" rx="2" class="level-0"></rect>
  <rect x="370" y="94" width="9" height="9" rx="2" class="level-0"></rect>
  <rect x="370" y="106" width="9" height="9" rx="2" class="level-0"></rect>
  <rect x="370" y="118" width="9" height="9" rx="2" class="level-0"></rect>
  <rect x="370" y="130" width="9" height="9" rx="2" class="level-0"></rect>
  <rect x="370" y="142" width="9" height="9" rx="2" class="level-0"></rect>
  <rect x="382" y="70" width="9" height="9" rx="2" class="level-0"></rect>
  <rect x="382" y="82" width="9" height="9" rx="2" class="level-0"></rect>
  <rect x="382" y="94" width="9" height="9" rx="2" class="level-0"></rect>
  <rect x="382" y="106" width="9" height="9" rx="2" class="level-0"></rect>
  <rect x="382" y="118" width="9" height="9" rx="2" class="level-0"></rect>
  <rect x="382" y="130" width="9" height="9" rx="2" class="level-0"></rect>
  <rect x="382" y="142" width="9" height="9" rx="2" class="level-0"></rect>
  <rect x="394" y="70" width="9" height="9" rx="2" class="level-0"></rect>
  <rect x="394" y="82" width="9" height="9" rx="2" class="level-0"></rect>
  <rect x="394" y="94" width="9" height="9" rx="2" class="level-0"></rect>
  <rect x="394" y="106" width="9" height="9" rx="2" class="level-0"></rect>
  <rect x="394" y="118" width="9" height="9" rx="2" class="level-0"></rect>
  <rect x="394" y="130" width="9" height="9" rx="2" class="level-0"></rect>
  <rect x="394" y="142" width="9" height="9" rx="2" class="level-0"></rect>
  <rect x="406" y="70" width="9" height="9" rx="2" class="level-0"></rect>
  <rect x="406" y="82" width="9" height="9" rx="2" class="level-0"></rect>
  <rect x="406" y="94" width="9" height="9" rx="2" class="level-0"></rect>
  <rect x="406" y="106" width="9" height="9" rx="2" class="level-0"></rect>
  <rect x="406" y="118" width="9" height="9" rx="2" class="level-0"></rect>
  <rect x="406" y="130" width="9" height="9" rx="2" class="level-0"></rect>
  <rect x="406" y="142" width="9" height="9" rx="2" class="level-0"></rect>
  <rect x="418" y="70" width="9" height="9" rx="2" class="level-0"></rect>
  <rect x="418" y="82" width="9" height="9" rx="2" class="level-0"></rect>
  <rect x="418" y="94" width="9" height="9" rx="2" class="level-0"></rect>
  <rect x="418" y="106" width="9" height="9" rx="2" class="level-0"></rect>
  <rect x="418" y="118" width="9" height="9" rx="2" class="level-0"></rect>
  <rect x="418" y="130" width="9" height="9" rx="2" class="level-0"></rect>
  <rect x="418" y="142" width="9" height="9" rx="2" class="level-0"></rect>
  <rect x="430" y="70" width="9" height="9" rx="2" class="level-0"></rect>
  <rect x="430" y="82" width="9" height="9" rx="2" class="level-0"></rect>
  <rect x="430" y="94" width="9" height="9" rx="2" class="level-0"></rect>
  <rect x="430" y="106" width="9" height="9" rx="2" class="level-0"></rect>
  <rect x="430" y="118" width="9" height="9" rx="2" class="level-0"></rect>
  <rect x="430" y="130" width="9" height="9" rx="2" class="level-0"></rect>
  <rect x="430" y="142" width="9" height="9" rx="2" class="level-0"></rect>
  <rect x="442" y="70" width="9" height="9" rx="2" class="level-0"></rect>
  <rect x="442" y="82" width="9" height="9" rx="2" class="level-0"></rect>
  <rect x="442" y="94" width="9" height="9" rx="2" class="level-0"></rect>
  <rect x="442" y="106" width="9" height="9" rx="2" class="level-1"><title>1 contribution on May 13, 2026</title></rect>
  <rect x="442" y="118" width="9" height="9" rx="2" class="level-0"></rect>
  <rect x="442" y="130" width="9" height="9" rx="2" class="level-3"><title>3 contributions on May 15, 2026</title></rect>
  <rect x="442" y="142" width="9" height="9" rx="2" class="level-0"></rect>
  <rect x="454" y="70" width="9" height="9" rx="2" class="level-0"></rect>
  <rect x="454" y="82" width="9" height="9" rx="2" class="level-0"></rect>
  <rect x="454" y="94" width="9" height="9" rx="2" class="level-0"></rect>
  <rect x="454" y="106" width="9" height="9" rx="2" class="level-0"></rect>
  <rect x="454" y="118" width="9" height="9" rx="2" class="level-4"><title>8 contributions on May 21, 2026</title></rect>
  <rect x="454" y="130" width="9" height="9" rx="2" class="level-0"></rect>
  <rect x="454" y="142" width="9" height="9" rx="2" class="level-0"></rect>
  <rect x="466" y="70" width="9" height="9" rx="2" class="level-0"></rect>
  <rect x="466" y="82" width="9" height="9" rx="2" class="level-3"><title>4 contributions on May 25, 2026</title></rect>
  <rect x="466" y="94" width="9" height="9" rx="2" class="level-0"></rect>
  <rect x="466" y="106" width="9" height="9" rx="2" class="level-0"></rect>
  <rect x="466" y="118" width="9" height="9" rx="2" class="level-0"></rect>
  <rect x="466" y="130" width="9" height="9" rx="2" class="level-0"></rect>
  <rect x="466" y="142" width="9" height="9" rx="2" class="level-4"><title>5 contributions on May 30, 2026</title></rect>
  <rect x="478" y="70" width="9" height="9" rx="2" class="level-0"></rect>
  <rect x="478" y="82" width="9" height="9" rx="2" class="level-3"><title>3 contributions on Jun 1, 2026</title></rect>
  <rect x="478" y="94" width="9" height="9" rx="2" class="level-2"><title>2 contributions on Jun 2, 2026</title></rect>
  <rect x="478" y="106" width="9" height="9" rx="2" class="level-0"></rect>
  <rect x="478" y="118" width="9" height="9" rx="2" class="level-2"><title>2 contributions on Jun 4, 2026</title></rect>
  <rect x="478" y="130" width="9" height="9" rx="2" class="level-0"></rect>
  <rect x="478" y="142" width="9" height="9" rx="2" class="level-3"><title>4 contributions on Jun 6, 2026</title></rect>
  <rect x="490" y="70" width="9" height="9" rx="2" class="level-3"><title>4 contributions on Jun 7, 2026</title></rect>
  <rect x="490" y="82" width="9" height="9" rx="2" class="level-0"></rect>
  <rect x="490" y="94" width="9" height="9" rx="2" class="level-0"></rect>
  <rect x="490" y="106" width="9" height="9" rx="2" class="level-0"></rect>
  <rect x="490" y="118" width="9" height="9" rx="2" class="level-0"></rect>
  <rect x="490" y="130" width="9" height="9" rx="2" class="level-0"></rect>
  <rect x="490" y="142" width="9" height="9" rx="2" class="level-0"></rect>
  <rect x="502" y="70" width="9" height="9" rx="2" class="level-0"></rect>
  <rect x="502" y="82" width="9" height="9" rx="2" class="level-2"><title>2 contributions on Jun 15, 2026</title></rect>
  <rect x="502" y="94" width="9" height="9" rx="2" class="level-0"></rect>
  <rect x="502" y="106" width="9" height="9" rx="2" class="level-0"></rect>
  <rect x="502" y="118" width="9" height="9" rx="2" class="level-1"><title>1 contribution on Jun 18, 2026</title></rect>
  <rect x="502" y="130" width="9" height="9" rx="2" class="level-1"><title>1 contribution on Jun 19, 2026</title></rect>
  <rect x="502" y="142" width="9" height="9" rx="2" class="level-0"></rect>
  <rect x="514" y="70" width="9" height="9" rx="2" class="level-0"></rect>
  <rect x="514" y="82" width="9" height="9" rx="2" class="level-0"></rect>
  <rect x="514" y="94" width="9" height="9" rx="2" class="level-0"></rect>
  <rect x="514" y="106" width="9" height="9" rx="2" class="level-0"></rect>
  <rect x="514" y="118" width="9" height="9" rx="2" class="level-0"></rect>
  <rect x="514" y="130" width="9" height="9" rx="2" class="level-1"><title>1 contribution on Jun 26, 2026</title></rect>
  <rect x="514" y="142" width="9" height="9" rx="2" class="level-0"></rect>
  <rect x="526" y="70" width="9" height="9" rx="2" class="level-0"></rect>
  <rect x="526" y="82" width="9" height="9" rx="2" class="level-0"></rect>
  <rect x="526" y="94" width="9" height="9" rx="2" class="level-1"><title>1 contribution on Jun 30, 2026</title></rect>
  <rect x="526" y="106" width="9" height="9" rx="2" class="level-0"></rect>
  <rect x="526" y="118" width="9" height="9" rx="2" class="level-0"></rect>
  <rect x="526" y="130" width="9" height="9" rx="2" class="level-1"><title>1 contribution on Jul 3, 2026</title></rect>
  <rect x="526" y="142" width="9" height="9" rx="2" class="level-0"></rect>
  <rect x="538" y="70" width="9" height="9" rx="2" class="level-0"></rect>
  <rect x="538" y="82" width="9" height="9" rx="2" class="level-0"></rect>
  <rect x="538" y="94" width="9" height="9" rx="2" class="level-0"></rect>
  <rect x="538" y="106" width="9" height="9" rx="2" class="level-0"></rect>
  <rect x="538" y="118" width="9" height="9" rx="2" class="level-0"></rect>
  <rect x="538" y="130" width="9" height="9" rx="2" class="level-0"></rect>
  <rect x="538" y="142" width="9" height="9" rx="2" class="level-0"></rect>
  <rect x="550" y="70" width="9" height="9" rx="2" class="level-0"></rect>
  <rect x="550" y="82" width="9" height="9" rx="2" class="level-0"></rect>
  <rect x="550" y="94" width="9" height="9" rx="2" class="level-0"></rect>
  <rect x="550" y="106" width="9" height="9" rx="2" class="level-0"></rect>
  <rect x="550" y="118" width="9" height="9" rx="2" class="level-2"><title>2 contributions on Jul 16, 2026</title></rect>
  <rect x="550" y="130" width="9" height="9" rx="2" class="level-3"><title>3 contributions on Jul 17, 2026</title></rect>
  <rect x="550" y="142" width="9" height="9" rx="2" class="level-0"></rect>
  <rect x="562" y="70" width="9" height="9" rx="2" class="level-0"></rect>
  <rect x="562" y="82" width="9" height="9" rx="2" class="level-2"><title>2 contributions on Jul 20, 2026</title></rect>
  <rect x="562" y="94" width="9" height="9" rx="2" class="level-4"><title>7 contributions on Jul 21, 2026</title></rect>
  <rect x="562" y="106" width="9" height="9" rx="2" class="level-0"></rect>
  <rect x="562" y="118" width="9" height="9" rx="2" class="level-1"><title>1 contribution on Jul 23, 2026</title></rect>
  <rect x="562" y="130" width="9" height="9" rx="2" class="level-3"><title>3 contributions on Jul 24, 2026</title></rect>
  <rect x="562" y="142" width="9" height="9" rx="2" class="level-0"></rect>
  <rect x="574" y="70" width="9" height="9" rx="2" class="level-0"></rect>
  <rect x="574" y="82" width="9" height="9" rx="2" class="level-0"></rect>
  <rect x="574" y="94" width="9" height="9" rx="2" class="level-0"></rect>
  <rect x="574" y="106" width="9" height="9" rx="2" class="level-0"></rect>
  <rect x="574" y="118" width="9" height="9" rx="2" class="level-4"><title>7 contributions on Jul 30, 2026</title></rect>
  <rect x="574" y="130" width="9" height="9" rx="2" class="level-0"></rect>
  <rect x="574" y="142" width="9" height="9" rx="2" class="level-0"></rect>
  <rect x="586" y="70" width="9" height="9" rx="2" class="level-0"></rect>
  <rect x="586" y="82" width="9" height="9" rx="2" class="level-0"></rect>
  <rect x="586" y="94" width="9" height="9" rx="2" class="level-1"><title>1 contribution on Aug 4, 2026</title></rect>
  <rect x="586" y="106" width="9" height="9" rx="2" class="level-3"><title>3 contributions on Aug 5, 2026</title></rect>
  <rect x="586" y="118" width="9" height="9" rx="2" class="level-3"><title>3 contributions on Aug 6, 2026</title></rect>
  <rect x="586" y="130" width="9" height="9" rx="2" class="level-1"><title>1 contribution on Aug 7, 2026</title></rect>
  <rect x="586" y="142" width="9" height="9" rx="2" class="level-0"></rect>
  <rect x="598" y="70" width="9" height="9" rx="2" class="level-0"></rect>
  <rect x="598" y="82" width="9" height="9" rx="2" class="level-0"></rect>
  <rect x="598" y="94" width="9" height="9" rx="2" class="level-1"><title>1 contribution on Aug 11, 2026</title></rect>
  <rect x="598" y="106" width="9" height="9" rx="2" class="level-0"></rect>
  <rect x="598" y="118" width="9" height="9" rx="2" class="level-2"><title>2 contributions on Aug 13, 2026</title></rect>
  <rect x="598" y="130" width="9" height="9" rx="2" class="level-1"><title>1 contribution on Aug 14, 2026</title></rect>
  <rect x="598" y="142" width="9" height="9" rx="2" class="level-0"></rect>
  <rect x="610" y="70" width="9" height="9" rx="2" class="level-0"></rect>
  <rect x="610" y="82" width="9" height="9" rx="2" class="level-1"><title>1 contribution on Aug 17, 2026</title></rect>
  <rect x="610" y="94" width="9" height="9" rx="2" class="level-0"></rect>
  <rect x="610" y="106" width="9" height="9" rx="2" class="level-4"><title>5 contributions on Aug 19, 2026</title></rect>
  <rect x="610" y="118" width="9" height="9" rx="2" class="level-0"></rect>
  <rect x="610" y="130" width="9" height="9" rx="2" class="level-0"></rect>
  <rect x="610" y="142" width="9" height="9" rx="2" class="level-0"></rect>
  <rect x="622" y="70" width="9" height="9" rx="2" class="level-0"></rect>
  <rect x="622" y="82" width="9" height="9" rx="2" class="level-0"></rect>
  <rect x="622" y="94" width="9" height="9" rx="2" class="level-0"></rect>
  <rect x="622" y="106" width="9" height="9" rx="2" class="level-4"><title>7 contributions on Aug 26, 2026</title></rect>
  <rect x="622" y="118" width="9" height="9" rx="2" class="level-0"></rect>
  <rect x="622" y="130" width="9" height="9" rx="2" class="level-3"><title>4 contributions on Aug 28, 2026</title></rect>
  <rect x="622" y="142" width="9" height="9" rx="2" class="level-0"></rect>
  <rect x="634" y="70" width="9" height="9" rx="2" class="level-0"></rect>
  <rect x="634" y="82" width="9" height="9" rx="2" class="level-2"><title>2 contributions on Aug 31, 2026</title></rect>
  <rect x="634" y="94" width="9" height="9" rx="2" class="level-1"><title>1 contribution on Sep 1, 2026</title></rect>
  <rect x="634" y="106" width="9" height="9" rx="2" class="level-4"><title>19 contributions on Sep 2, 2026</title></rect>
  <rect x="634" y="118" width="9" height="9" rx="2" class="level-1"><title>1 contribution on Sep 3, 2026</title></rect>
  <rect x="634" y="130" width="9" height="9" rx="2" class="level-4"><title>8 contributions on Sep 4, 2026</title></rect>
  <rect x="634" y="142" width="9" height="9" rx="2" class="level-0"></rect>
  <rect x="646" y="70" width="9" height="9" rx="2" class="level-0"></rect>
  <rect x="646" y="82" width="9" height="9" rx="2" class="level-3"><title>3 contributions on Sep 7, 2026</title></rect>
  <rect x="646" y="94" width="9" height="9" rx="2" class="level-3"><title>3 contributions on Sep 8, 2026</title></rect>
  <rect x="646" y="106" width="9" height="9" rx="2" class="level-4"><title>7 contributions on Sep 9, 2026</title></rect>
  <rect x="646" y="118" width="9" height="9" rx="2" class="level-0"></rect>
  <rect x="646" y="130" width="9" height="9" rx="2" class="level-1"><title>1 contribution on Sep 11, 2026</title></rect>
  <rect x="646" y="142" width="9" height="9" rx="2" class="level-0"></rect>
  <rect x="658" y="70" width="9" height="9" rx="2" class="level-0"></rect>
  <rect x="658" y="82" width="9" height="9" rx="2" class="level-0"></rect>
  <rect x="658" y="94" width="9" height="9" rx="2" class="level-0"></rect>
  <rect x="658" y="106" width="9" height="9" rx="2" class="level-0"></rect>
  <rect x="658" y="118" width="9" height="9" rx="2" class="level-3"><title>4 contributions on Sep 17, 2026</title></rect>
  <rect x="658" y="130" width="9" height="9" rx="2" class="level-3"><title>3 contributions on Sep 18, 2026</title></rect>
  <text x="34" y="181" class="axis">Less</text>
  <rect x="68" y="172" width="10" height="10" rx="2" class="level-0" />
  <rect x="82" y="172" width="10" height="10" rx="2" class="level-1" />
  <rect x="96" y="172" width="10" height="10" rx="2" class="level-2" />
  <rect x="110" y="172" width="10" height="10" rx="2" class="level-3" />
  <rect x="124" y="172" width="10" height="10" rx="2" class="level-4" />
  <text x="142" y="181" class="axis">More</text>
  <text x="663" y="181" class="meta" text-anchor="end">Updated 2026-09-18 07:04 UTC</text>
</svg>